# xmcd
#
# Track frame offsets:
#	150
#	15197
#	31380
#	45001
#	54094
#	64932
#	78724
#	87582
#	100766
#	112823
#	122396
#	134165
#	146264
#	158181
#	171535
#	184788
#	197875
#	209668
#	220372
#	230767
#	241290
#	252693
#	266483
#
# Disc length: 3710 seconds
#
# Revision: 0
# Processed by: cddbd v1.5.2PL0 Copyright (c) Steve Scherf et al.
# Submitted via: EZCDAudioConverter 1.3.4.1
#
DISCID=4b0e7c17
DTITLE=V/A - Royal Grooves
DYEAR=1900
DGENRE=
TTITLE0=Kastle - Getting Down (With Hoss)
TTITLE1=Barbara Burton And The Messengers - Love's Sweet Water
TTITLE2=Kay Robinson - The Lord Will Make A Way Somehow
TTITLE3=Elaine Armstrong - Sad But True
TTITLE4=The Brownettes - Baby, Don't You Know
TTITLE5=Albert Washington - Somewhere Down The Line
TTITLE6=The Presidents - Shoe Shine (Part 2)
TTITLE7=Frank Howard and The Continentals - Do What You Wanna Do (Part 1)
TTITLE8=Clay Tyson - Clay Tyson (Man On The Moon)
TTITLE9=Leon Austin - Steal Away
TTITLE10=Wendy Lynn - I Can Remember
TTITLE11=Bonnie and Sheila - You Keep Me Hanging On
TTITLE12=Connie Austin - Ball Of Fire
TTITLE13=Willy Wiley - Just Be Glad
TTITLE14=Gloria Edwards - (Need Nobody To Help Me) Keep Up With My Man
TTITLE15=The Coasters - Cool Jerk
TTITLE16=The Presidents - Peter Rabbit
TTITLE17=Robert Moore - Lookin' For A Woman
TTITLE18=King Coleman - The Boo Boo Song
TTITLE19=Hank Ballard - Unwind Yourself
TTITLE20=The Presidents - Shoe Shine (Part 1)
TTITLE21=Bill Doggett - Wet And Satisfied
TTITLE22=Willy Wiley - Push And Shove
EXTD=
EXTT0=
EXTT1=
EXTT2=
EXTT3=
EXTT4=
EXTT5=
EXTT6=
EXTT7=
EXTT8=
EXTT9=
EXTT10=
EXTT11=
EXTT12=
EXTT13=
EXTT14=
EXTT15=
EXTT16=
EXTT17=
EXTT18=
EXTT19=
EXTT20=
EXTT21=
EXTT22=
PLAYORDER=
